{"accessors":[{"bufferView":2,"componentType":5126,"count":2482,"max":[42.99250030517578,21.124996185302734,76.28901672363281],"min":[-42.8134651184082,-21.124990463256836,1.4639239311218262],"type":"VEC3"},{"bufferView":2,"byteOffset":29784,"componentType":5126,"count":2482,"max":[0.9993751645088196,0.9999843835830688,0.9999993443489075],"min":[-0.9996170401573181,-0.9999843835830688,-1],"type":"VEC3"},{"bufferView":1,"componentType":5126,"count":2482,"max":[1.2006042003631592,0.9845886826515198],"min":[0.019999999552965164,0.4462776482105255],"type":"VEC2"},{"bufferView":0,"componentType":5125,"count":14400,"max":[2481],"min":[0],"type":"SCALAR"},{"bufferView":3,"componentType":5126,"count":14,"max":[1.625],"min":[0],"type":"SCALAR"},{"bufferView":4,"componentType":5126,"count":14,"max":[1.1007392406463623,1.1007392406463623,1.1007392406463623],"min":[1,1,1],"type":"VEC3"},{"bufferView":3,"byteOffset":56,"componentType":5126,"count":51,"max":[1.625],"min":[0],"type":"SCALAR"},{"bufferView":5,"componentType":5126,"count":51,"max":[-0.003586329286918044,0.7070977091789246,0.7070977091789246,0.7071067690849304],"min":[-0.7071067690849304,0,0,0.003586329286918044],"type":"VEC4"}],"animations":[{"channels":[{"sampler":0,"target":{"node":5,"path":"scale"}},{"sampler":1,"target":{"node":5,"path":"rotation"}}],"name":"Take 001","samplers":[{"input":4,"interpolation":"LINEAR","output":5},{"input":6,"interpolation":"LINEAR","output":7}]}],"asset":{"extras":{"author":"omarelone (https://sketchfab.com/omarelone)","license":"CC-BY-4.0 (http://creativecommons.org/licenses/by/4.0/)","source":"https://sketchfab.com/3d-models/pumping-heart-model-6f815b9822dc479eae0a17b8dcab9c75","title":"PUMPING HEART MODEL"},"generator":"Sketchfab-9.52.0","version":"2.0"},"bufferViews":[{"buffer":0,"byteLength":57600,"byteOffset":0,"name":"floatBufferViews","target":34963},{"buffer":0,"byteLength":19856,"byteOffset":57600,"byteStride":8,"name":"floatBufferViews","target":34962},{"buffer":0,"byteLength":59568,"byteOffset":77456,"byteStride":12,"name":"floatBufferViews","target":34962},{"buffer":0,"byteLength":260,"byteOffset":137024,"name":"floatBufferViews"},{"buffer":0,"byteLength":168,"byteOffset":137284,"byteStride":12,"name":"floatBufferViews"},{"buffer":0,"byteLength":816,"byteOffset":137452,"byteStride":16,"name":"floatBufferViews"}],"buffers":[{"byteLength":138268,"uri":"data:application/octet-stream;base64,"}],"materials":[{"doubleSided":true,"name":"Material_41","pbrMetallicRoughness":{"baseColorFactor":[0.3206165176906652,0.0010304561623339437,0.0010304561623339437,1],"metallicFactor":0,"roughnessFactor":0.026939248139003537}}],"meshes":[{"name":"BASE HEART_Material #41_0","primitives":[{"attributes":{"NORMAL":1,"POSITION":0,"TEXCOORD_0":2},"indices":3,"material":0,"mode":4}]}],"nodes":[{"children":[1],"name":"RootNode (gltf orientation matrix)","rotation":[-0.7071067811865475,0,0,0.7071067811865476]},{"children":[2],"name":"RootNode (model correction matrix)"},{"children":[3],"matrix":[1,0,0,0,0,0,1,0,0,-1,0,0,0,0,0,1],"name":"f6bcb81c5d674405b84df409a29b9a55.fbx"},{"children":[4],"name":""},{"children":[5],"name":"RootNode"},{"children":[6],"name":"BASE HEART","rotation":[-0.7071068286895752,0,0,0.7071068286895752],"translation":[-0.6757869720458984,38.876468658447266,-0.25510501861572266]},{"children":[7],"matrix":[1,0,0,0,0,1,0,0,0,0,1,0,-0.08951759338378906,-0.00000286102294921875,-38.876468658447266,1],"name":""},{"mesh":0,"name":"BASE HEART_Material #41_0"}],"scene":0,"scenes":[{"name":"OSG_Scene","nodes":[0]}]}